<svg xmlns="http://www.w3.org/2000/svg" width="92.935" height="92.935" viewBox="0 0 92.935 92.935">
  <g id="Group_1" data-name="Group 1" transform="translate(-596.756 -588.476)">
    <g id="Group_921" data-name="Group 921">
      <g id="Group_868" data-name="Group 868">
        <path id="Path_172" data-name="Path 172" d="M614.182,658.178h5.808v5.808h11.617v5.808h23.234v-5.808h11.617v-5.808h5.808V646.561h5.808V623.327h-5.808V611.71h-5.808V605.9H654.841v-5.808H637.416V605.9h-5.808v5.808h23.234v5.808h5.808v5.808h5.808v23.234h-5.808v5.808h-5.808v5.808H631.607v-5.808H625.8v-5.808H619.99V623.327h-5.808v5.808h-5.808v17.425h5.808Z" fill="#0cb6f2"/>
      </g>
      <g id="Group_869" data-name="Group 869">
        <path id="Path_173" data-name="Path 173" d="M625.8,623.327v-5.808h5.808V611.71H619.99v11.617Z" fill="#0cb6f2"/>
      </g>
      <g id="Group_870" data-name="Group 870">
        <path id="Path_174" data-name="Path 174" d="M649.032,623.327v5.808h-5.808v5.808h-5.808v5.808h-5.808v11.617h11.617v-5.808h5.808v-5.808h5.808v-5.808h5.808V623.327H649.032Z" fill="#0cb6f2"/>
      </g>
      <g id="Group_871" data-name="Group 871">
        <rect id="Rectangle_961" data-name="Rectangle 961" width="5.808" height="5.808" transform="translate(631.607 600.093)" fill="#fff"/>
      </g>
      <g id="Group_872" data-name="Group 872">
        <rect id="Rectangle_962" data-name="Rectangle 962" width="11.617" height="5.808" transform="translate(619.99 605.902)" fill="#fff"/>
      </g>
      <g id="Group_873" data-name="Group 873">
        <rect id="Rectangle_963" data-name="Rectangle 963" width="5.808" height="11.617" transform="translate(614.182 611.71)" fill="#fff"/>
      </g>
      <g id="Group_874" data-name="Group 874">
        <path id="Path_175" data-name="Path 175" d="M654.841,634.944v5.808h-5.808v5.808h-5.808v5.808h11.617v-5.808h5.808V634.944Z" fill="#fff"/>
      </g>
      <g id="Group_875" data-name="Group 875">
        <rect id="Rectangle_964" data-name="Rectangle 964" width="5.808" height="5.808" transform="translate(608.373 623.327)" fill="#fff"/>
      </g>
      <g id="Group_876" data-name="Group 876">
        <rect id="Rectangle_965" data-name="Rectangle 965" width="5.808" height="5.808" transform="translate(666.458 663.986)"/>
      </g>
      <g id="Group_877" data-name="Group 877">
        <rect id="Rectangle_966" data-name="Rectangle 966" width="5.808" height="5.808" transform="translate(672.266 658.178)"/>
      </g>
      <g id="Group_878" data-name="Group 878">
        <rect id="Rectangle_967" data-name="Rectangle 967" width="11.617" height="5.808" transform="translate(619.99 594.285)"/>
      </g>
      <g id="Group_879" data-name="Group 879">
        <rect id="Rectangle_968" data-name="Rectangle 968" width="11.617" height="5.808" transform="translate(654.841 669.795)"/>
      </g>
      <g id="Group_880" data-name="Group 880">
        <rect id="Rectangle_969" data-name="Rectangle 969" width="5.808" height="5.808" transform="translate(614.182 663.986)"/>
      </g>
      <g id="Group_881" data-name="Group 881">
        <rect id="Rectangle_970" data-name="Rectangle 970" width="5.808" height="11.617" transform="translate(678.075 646.561)"/>
      </g>
      <g id="Group_882" data-name="Group 882">
        <rect id="Rectangle_971" data-name="Rectangle 971" width="5.808" height="5.808" transform="translate(666.458 600.093)"/>
      </g>
      <g id="Group_883" data-name="Group 883">
        <rect id="Rectangle_972" data-name="Rectangle 972" width="11.617" height="5.808" transform="translate(654.841 594.285)"/>
      </g>
      <g id="Group_884" data-name="Group 884">
        <rect id="Rectangle_973" data-name="Rectangle 973" width="5.808" height="5.808" transform="translate(672.266 605.902)"/>
      </g>
      <g id="Group_885" data-name="Group 885">
        <rect id="Rectangle_974" data-name="Rectangle 974" width="5.808" height="11.617" transform="translate(678.075 611.71)"/>
      </g>
      <g id="Group_886" data-name="Group 886">
        <rect id="Rectangle_975" data-name="Rectangle 975" width="11.617" height="5.808" transform="translate(619.99 669.795)"/>
      </g>
      <g id="Group_887" data-name="Group 887">
        <rect id="Rectangle_976" data-name="Rectangle 976" width="5.808" height="5.808" transform="translate(608.373 658.178)"/>
      </g>
      <g id="Group_888" data-name="Group 888">
        <rect id="Rectangle_977" data-name="Rectangle 977" width="5.808" height="23.234" transform="translate(596.756 623.327)"/>
      </g>
      <g id="Group_889" data-name="Group 889">
        <rect id="Rectangle_978" data-name="Rectangle 978" width="23.234" height="5.808" transform="translate(631.607 588.476)"/>
      </g>
      <g id="Group_890" data-name="Group 890">
        <rect id="Rectangle_979" data-name="Rectangle 979" width="23.234" height="5.808" transform="translate(631.607 675.603)"/>
      </g>
      <g id="Group_891" data-name="Group 891">
        <rect id="Rectangle_980" data-name="Rectangle 980" width="5.808" height="23.234" transform="translate(683.883 623.327)"/>
      </g>
      <g id="Group_892" data-name="Group 892">
        <rect id="Rectangle_981" data-name="Rectangle 981" width="5.808" height="5.808" transform="translate(614.182 600.093)"/>
      </g>
      <g id="Group_893" data-name="Group 893">
        <rect id="Rectangle_982" data-name="Rectangle 982" width="5.808" height="11.617" transform="translate(602.565 646.561)"/>
      </g>
      <g id="Group_894" data-name="Group 894">
        <rect id="Rectangle_983" data-name="Rectangle 983" width="5.808" height="11.617" transform="translate(602.565 611.71)"/>
      </g>
      <g id="Group_895" data-name="Group 895">
        <rect id="Rectangle_984" data-name="Rectangle 984" width="5.808" height="5.808" transform="translate(608.373 605.902)"/>
      </g>
      <g id="Group_896" data-name="Group 896">
        <rect id="Rectangle_985" data-name="Rectangle 985" width="5.808" height="11.617" transform="translate(608.373 611.71)" fill="#350ae8"/>
      </g>
      <g id="Group_897" data-name="Group 897">
        <path id="Path_176" data-name="Path 176" d="M608.373,629.135v-5.808h-5.808v23.234h5.808Z" fill="#350ae8"/>
      </g>
      <g id="Group_898" data-name="Group 898">
        <path id="Path_177" data-name="Path 177" d="M631.607,623.327H625.8v23.234h5.808v-5.808h5.808v-5.808h5.808v-5.808h5.808v-5.808h5.808v-5.808H631.607Z" fill="#350ae8"/>
      </g>
      <g id="Group_899" data-name="Group 899">
        <rect id="Rectangle_986" data-name="Rectangle 986" width="5.808" height="11.617" transform="translate(608.373 646.561)" fill="#350ae8"/>
      </g>
      <g id="Group_900" data-name="Group 900">
        <rect id="Rectangle_987" data-name="Rectangle 987" width="5.808" height="5.808" transform="translate(614.182 605.902)" fill="#350ae8"/>
      </g>
      <g id="Group_901" data-name="Group 901">
        <path id="Path_178" data-name="Path 178" d="M660.649,646.561h5.808V623.327h-5.808v23.234Z" fill="#350ae8"/>
      </g>
      <g id="Group_902" data-name="Group 902">
        <rect id="Rectangle_988" data-name="Rectangle 988" width="5.808" height="5.808" transform="translate(654.841 646.561)" fill="#350ae8"/>
      </g>
      <g id="Group_903" data-name="Group 903">
        <path id="Path_179" data-name="Path 179" d="M631.607,652.369v5.808h23.234v-5.808H631.607Z" fill="#350ae8"/>
      </g>
      <g id="Group_904" data-name="Group 904">
        <path id="Path_180" data-name="Path 180" d="M637.416,600.093h17.425v-5.808H631.607v5.808Z" fill="#350ae8"/>
      </g>
      <g id="Group_905" data-name="Group 905">
        <rect id="Rectangle_989" data-name="Rectangle 989" width="11.617" height="5.808" transform="translate(619.99 600.093)" fill="#350ae8"/>
      </g>
      <g id="Group_906" data-name="Group 906">
        <rect id="Rectangle_990" data-name="Rectangle 990" width="23.234" height="5.808" transform="translate(631.607 669.795)" fill="#350ae8"/>
      </g>
      <g id="Group_907" data-name="Group 907">
        <rect id="Rectangle_991" data-name="Rectangle 991" width="11.617" height="5.808" transform="translate(619.99 663.986)" fill="#350ae8"/>
      </g>
      <g id="Group_908" data-name="Group 908">
        <rect id="Rectangle_992" data-name="Rectangle 992" width="5.808" height="5.808" transform="translate(614.182 658.178)" fill="#350ae8"/>
      </g>
      <g id="Group_909" data-name="Group 909">
        <rect id="Rectangle_993" data-name="Rectangle 993" width="11.617" height="5.808" transform="translate(654.841 663.986)" fill="#0f8aef"/>
      </g>
      <g id="Group_910" data-name="Group 910">
        <rect id="Rectangle_994" data-name="Rectangle 994" width="5.808" height="23.234" transform="translate(678.075 623.327)" fill="#0f8aef"/>
      </g>
      <g id="Group_911" data-name="Group 911">
        <rect id="Rectangle_995" data-name="Rectangle 995" width="5.808" height="5.808" transform="translate(666.458 658.178)" fill="#0f8aef"/>
      </g>
      <g id="Group_912" data-name="Group 912">
        <rect id="Rectangle_996" data-name="Rectangle 996" width="5.808" height="11.617" transform="translate(672.266 611.71)" fill="#0f8aef"/>
      </g>
      <g id="Group_913" data-name="Group 913">
        <rect id="Rectangle_997" data-name="Rectangle 997" width="5.808" height="5.808" transform="translate(666.458 605.902)" fill="#0f8aef"/>
      </g>
      <g id="Group_914" data-name="Group 914">
        <rect id="Rectangle_998" data-name="Rectangle 998" width="11.617" height="5.808" transform="translate(654.841 600.093)" fill="#0f8aef"/>
      </g>
      <g id="Group_915" data-name="Group 915">
        <rect id="Rectangle_999" data-name="Rectangle 999" width="5.808" height="11.617" transform="translate(672.266 646.561)" fill="#0f8aef"/>
      </g>
      <g id="Group_916" data-name="Group 916">
        <rect id="Rectangle_1000" data-name="Rectangle 1000" width="23.234" height="5.808" transform="translate(631.607 611.71)" fill="#0f8aef"/>
      </g>
      <g id="Group_917" data-name="Group 917">
        <rect id="Rectangle_1001" data-name="Rectangle 1001" width="5.808" height="5.808" transform="translate(625.799 646.561)" fill="#0f8aef"/>
      </g>
      <g id="Group_918" data-name="Group 918">
        <rect id="Rectangle_1002" data-name="Rectangle 1002" width="5.808" height="5.808" transform="translate(654.841 617.519)" fill="#0f8aef"/>
      </g>
      <g id="Group_919" data-name="Group 919">
        <rect id="Rectangle_1003" data-name="Rectangle 1003" width="5.808" height="23.234" transform="translate(619.99 623.327)" fill="#0f8aef"/>
      </g>
      <g id="Group_920" data-name="Group 920">
        <rect id="Rectangle_1004" data-name="Rectangle 1004" width="5.808" height="5.808" transform="translate(625.799 617.519)" fill="#0f8aef"/>
      </g>
    </g>
    <g id="Group_922" data-name="Group 922">
      <rect id="Rectangle_1005" data-name="Rectangle 1005" width="5.807" height="5.81" transform="translate(643.227 617.518)" fill="#fff"/>
      <rect id="Rectangle_1006" data-name="Rectangle 1006" width="5.807" height="5.81" transform="translate(649.034 617.518)" fill="#fff"/>
      <rect id="Rectangle_1007" data-name="Rectangle 1007" width="5.807" height="5.81" transform="translate(643.227 623.328)" fill="#fff"/>
      <rect id="Rectangle_1008" data-name="Rectangle 1008" width="5.807" height="5.81" transform="translate(637.421 623.328)" fill="#fff"/>
      <rect id="Rectangle_1009" data-name="Rectangle 1009" width="5.807" height="5.81" transform="translate(637.421 629.137)" fill="#fff"/>
      <rect id="Rectangle_1010" data-name="Rectangle 1010" width="5.807" height="5.81" transform="translate(631.614 629.137)" fill="#fff"/>
      <rect id="Rectangle_1011" data-name="Rectangle 1011" width="5.807" height="5.81" transform="translate(643.227 640.757)" fill="#fff"/>
      <rect id="Rectangle_1012" data-name="Rectangle 1012" width="5.807" height="5.81" transform="translate(649.034 640.757)" fill="#fff"/>
      <rect id="Rectangle_1013" data-name="Rectangle 1013" width="5.807" height="5.81" transform="translate(643.227 646.566)" fill="#fff"/>
      <rect id="Rectangle_1014" data-name="Rectangle 1014" width="5.807" height="5.81" transform="translate(637.421 646.566)" fill="#fff"/>
      <rect id="Rectangle_1015" data-name="Rectangle 1015" width="5.807" height="5.81" transform="translate(637.421 652.376)" fill="#fff"/>
      <rect id="Rectangle_1016" data-name="Rectangle 1016" width="5.807" height="5.81" transform="translate(631.614 652.376)" fill="#fff"/>
      <rect id="Rectangle_1017" data-name="Rectangle 1017" width="5.807" height="5.81" transform="translate(637.421 634.947)" fill="#fff"/>
      <rect id="Rectangle_1018" data-name="Rectangle 1018" width="5.807" height="5.81" transform="translate(631.614 634.947)" fill="#fff"/>
      <rect id="Rectangle_1019" data-name="Rectangle 1019" width="5.807" height="5.81" transform="translate(625.829 629.137)" fill="#fff"/>
      <rect id="Rectangle_1020" data-name="Rectangle 1020" width="5.807" height="5.81" transform="translate(625.829 634.947)" fill="#fff"/>
      <rect id="Rectangle_1021" data-name="Rectangle 1021" width="5.807" height="5.81" transform="translate(649.034 634.947)" fill="#fff"/>
      <rect id="Rectangle_1022" data-name="Rectangle 1022" width="5.807" height="5.81" transform="translate(654.818 640.757)" fill="#fff"/>
      <rect id="Rectangle_1023" data-name="Rectangle 1023" width="5.807" height="5.81" transform="translate(654.818 634.947)" fill="#fff"/>
      <rect id="Rectangle_1024" data-name="Rectangle 1024" width="5.807" height="5.81" transform="translate(643.227 634.947)" fill="#fff"/>
    </g>
  </g>
</svg>
