<svg xmlns="http://www.w3.org/2000/svg" width="1117.841" height="966.706" viewBox="0 0 1117.841 966.706">
  <g id="Group_29" data-name="Group 29" transform="translate(-84.275 -97.343)">
    <path id="Path_46" data-name="Path 46" d="M0,0H982.854V855.1H0Z" transform="translate(154.096 142.591)" fill="#2a1a89"/>
    <path id="Path_3" data-name="Path 3" d="M1188.2,1010.8V149.744h-11.623V135.508h-12.645v-12.99h-13.475V110.392H135.618v12.3h-13.3V135.88H109.854v13.864h-11.6V1010.8h11.779v11.84H97.088v15.481h12.947v12.688h14.193v-13.89h11.779v-13.06H1149.488v13.06h12.566v14.071H1176.6v-14.071h12.662v-14.167Z" fill="#4312db"/>
    <rect id="Rectangle_26" data-name="Rectangle 26" width="13.506" height="12.121" transform="translate(1150.457 110.394)" fill="#150c4c"/>
    <rect id="Rectangle_27" data-name="Rectangle 27" width="12.649" height="12.121" transform="translate(1163.964 98.273)" fill="#150c4c"/>
    <rect id="Rectangle_28" data-name="Rectangle 28" width="11.728" height="12.121" transform="translate(1176.612 110.394)" fill="#150c4c"/>
    <rect id="Rectangle_29" data-name="Rectangle 29" width="11.728" height="12.92" transform="translate(1188.34 122.515)" fill="#150c4c"/>
    <rect id="Rectangle_30" data-name="Rectangle 30" width="12.649" height="12.92" transform="translate(1163.964 122.515)" fill="#150c4c"/>
    <rect id="Rectangle_31" data-name="Rectangle 31" width="11.728" height="14.525" transform="translate(1176.612 135.435)" fill="#150c4c"/>
    <rect id="Rectangle_32" data-name="Rectangle 32" width="12.855" height="11.896" transform="translate(1176.407 1010.836)" fill="#150c4c"/>
    <rect id="Rectangle_33" data-name="Rectangle 33" width="12.855" height="15.208" transform="translate(1189.261 1022.732)" fill="#150c4c"/>
    <rect id="Rectangle_34" data-name="Rectangle 34" width="1013.467" height="13.051" transform="translate(136.004 1023.865)" fill="#150c4c"/>
    <rect id="Rectangle_35" data-name="Rectangle 35" width="1014.454" height="13.051" transform="translate(136.004 97.343)" fill="#150c4c"/>
    <rect id="Rectangle_36" data-name="Rectangle 36" width="12.855" height="14.079" transform="translate(1176.407 1036.916)" fill="#150c4c"/>
    <rect id="Rectangle_37" data-name="Rectangle 37" width="14.345" height="13.054" transform="translate(1162.062 1050.995)" fill="#150c4c"/>
    <rect id="Rectangle_38" data-name="Rectangle 38" width="12.568" height="14.079" transform="translate(1149.47 1036.916)" fill="#150c4c"/>
    <rect id="Rectangle_39" data-name="Rectangle 39" width="11.728" height="860.876" transform="translate(1188.134 149.96)" fill="#150c4c"/>
    <rect id="Rectangle_40" data-name="Rectangle 40" width="13.506" height="12.121" transform="translate(135.934 122.515) rotate(-180)" fill="#150c4c"/>
    <rect id="Rectangle_41" data-name="Rectangle 41" width="12.649" height="12.121" transform="translate(122.427 110.394) rotate(-180)" fill="#150c4c"/>
    <rect id="Rectangle_42" data-name="Rectangle 42" width="11.728" height="12.121" transform="translate(109.779 122.515) rotate(-180)" fill="#150c4c"/>
    <rect id="Rectangle_43" data-name="Rectangle 43" width="11.728" height="12.92" transform="translate(98.051 135.435) rotate(-180)" fill="#150c4c"/>
    <rect id="Rectangle_44" data-name="Rectangle 44" width="12.649" height="12.92" transform="translate(122.427 135.435) rotate(-180)" fill="#150c4c"/>
    <rect id="Rectangle_45" data-name="Rectangle 45" width="11.728" height="14.525" transform="translate(109.779 149.96) rotate(-180)" fill="#150c4c"/>
    <rect id="Rectangle_46" data-name="Rectangle 46" width="12.855" height="11.896" transform="translate(109.984 1022.732) rotate(-180)" fill="#150c4c"/>
    <rect id="Rectangle_47" data-name="Rectangle 47" width="12.855" height="15.208" transform="translate(97.13 1037.94) rotate(-180)" fill="#150c4c"/>
    <rect id="Rectangle_48" data-name="Rectangle 48" width="12.855" height="14.079" transform="translate(109.984 1050.995) rotate(-180)" fill="#150c4c"/>
    <rect id="Rectangle_49" data-name="Rectangle 49" width="14.345" height="13.054" transform="translate(124.329 1064.049) rotate(-180)" fill="#150c4c"/>
    <rect id="Rectangle_50" data-name="Rectangle 50" width="12.568" height="14.079" transform="translate(136.921 1050.995) rotate(-180)" fill="#150c4c"/>
    <rect id="Rectangle_51" data-name="Rectangle 51" width="11.728" height="860.876" transform="translate(98.257 1010.836) rotate(-180)" fill="#150c4c"/>
    <rect id="Rectangle_52" data-name="Rectangle 52" width="11.522" height="861.048" transform="translate(1176.612 149.748)" fill="#5fa0ed"/>
    <rect id="Rectangle_53" data-name="Rectangle 53" width="12.649" height="14.313" transform="translate(1163.964 135.435)" fill="#5fa0ed"/>
    <rect id="Rectangle_54" data-name="Rectangle 54" width="13.506" height="12.92" transform="translate(1150.457 122.515)" fill="#5fa0ed"/>
    <rect id="Rectangle_55" data-name="Rectangle 55" width="13.506" height="12.121" transform="translate(1136.951 110.394)" fill="#5fa0ed"/>
    <g id="Group_27" data-name="Group 27">
      <rect id="Rectangle_56" data-name="Rectangle 56" width="11.522" height="861.048" transform="translate(109.913 1010.796) rotate(-180)" fill="#5fa0ed"/>
      <rect id="Rectangle_57" data-name="Rectangle 57" width="12.649" height="14.313" transform="translate(122.561 149.748) rotate(-180)" fill="#5fa0ed"/>
      <rect id="Rectangle_58" data-name="Rectangle 58" width="13.506" height="12.92" transform="translate(136.068 135.435) rotate(-180)" fill="#5fa0ed"/>
      <rect id="Rectangle_59" data-name="Rectangle 59" width="13.506" height="12.121" transform="translate(149.574 122.515) rotate(-180)" fill="#5fa0ed"/>
    </g>
    <rect id="Rectangle_60" data-name="Rectangle 60" width="1013.467" height="13.029" transform="translate(136.004 1010.836)" fill="#2f11aa"/>
    <g id="Group_28" data-name="Group 28">
      <rect id="Rectangle_61" data-name="Rectangle 61" width="12.568" height="13.051" transform="translate(1149.47 1023.865)" fill="#2f11aa"/>
      <rect id="Rectangle_62" data-name="Rectangle 62" width="14.368" height="14.076" transform="translate(1162.039 1036.916)" fill="#2f11aa"/>
    </g>
    <rect id="Rectangle_63" data-name="Rectangle 63" width="11.648" height="13.051" transform="translate(136.004 1036.919) rotate(-180)" fill="#2f11aa"/>
    <rect id="Rectangle_64" data-name="Rectangle 64" width="14.368" height="14.076" transform="translate(124.341 1050.993) rotate(-180)" fill="#2f11aa"/>
  </g>
</svg>
