<svg xmlns="http://www.w3.org/2000/svg" width="114.95" height="119.31" viewBox="0 0 114.95 119.31">
  <g id="Group_1112" data-name="Group 1112" transform="translate(-138 -362)">
    <g id="Group_1109" data-name="Group 1109" transform="translate(-655.561 400.557)">
      <g id="Group_1110" data-name="Group 1110">
        <g id="Group_1111" data-name="Group 1111">
          <g id="Component_2_1" data-name="Component 2 – 1" transform="translate(793.561 -38.557)">
            <path id="Path_208" data-name="Path 208" d="M1005.594,92.967h-6.123v12.721h-6.13v6.356h-6.123v6.364H981.1v6.356H968.842v6.356H927.41v-6.356H915.157v-6.356h-6.131v-6.364H902.9v-6.356h-6.12V92.967h-6.131v-43h6.131V37.236h6.12V30.887h6.123V24.515h6.131V18.158H927.41V11.81h41.432v6.348H981.1v6.356h6.123v6.372h6.123v6.349h6.13V49.964h6.123Z" transform="translate(-890.649 -11.81)" fill="#2a1a89"/>
          </g>
        </g>
      </g>
    </g>
    <g id="Component_1_4" data-name="Component 1 – 4" transform="translate(140 366)">
      <path id="Path_13" data-name="Path 13" d="M418.287,615.09V603.147h-5.921V597.18h-5.914V591.2h-5.913v-5.967H388.7V579.27h-40v5.968H336.871V591.2H330.95v5.976h-5.914v5.967h-5.913V615.09H313.2v40.361h5.922v11.943h5.913v5.967h5.914v5.976h5.921V685.3H348.7v5.968h40V685.3H400.54v-5.967h5.913V673.36h5.914v-5.967h5.921V655.451H424.2V615.09Zm-2.254,32.119h-5.914v11.943H404.2v5.967h-5.914V671.1h-5.913v5.967H380.536v5.968H356.874v-5.97H345.039v-5.967h-5.921v-5.976H333.2V659.15h-5.913V647.208h-5.922V623.332h5.922V611.389H333.2v-5.967h5.914v-5.976h5.921V593.48H356.87v-5.968h23.662v5.968h11.835v5.967h5.913v5.976h5.92v5.967h5.921v11.943h5.914Z" transform="translate(-313.201 -579.27)" fill="#25c4e8"/>
    </g>
  </g>
</svg>
