<svg xmlns="http://www.w3.org/2000/svg" width="95.835" height="95.834" viewBox="0 0 95.835 95.834">
  <g id="Group_251" data-name="Group 251" transform="translate(-869.218 -587.03)">
    <g id="Group_249" data-name="Group 249">
      <g id="Group_196" data-name="Group 196">
        <path id="Path_64" data-name="Path 64" d="M887.187,658.905h5.99v5.99h11.979v5.99h23.959V664.9h11.979v-5.99h5.99V646.926h5.99V622.968h-5.99v-11.98h-5.99V605H929.115v-5.99H911.146V605h-5.99v5.99h23.959v5.99h5.99v5.99h5.99v23.959H935.1v5.99h-5.99v5.99H905.156v-5.99h-5.99v-5.99h-5.99V622.968h-5.99v5.99H881.2v17.969h5.99Z" fill="#ff1a1a"/>
      </g>
      <g id="Group_197" data-name="Group 197">
        <path id="Path_65" data-name="Path 65" d="M899.167,622.968v-5.99h5.99v-5.99h-11.98v11.979Z" fill="#ff1a1a"/>
      </g>
      <g id="Group_198" data-name="Group 198">
        <path id="Path_66" data-name="Path 66" d="M923.125,622.968v5.99h-5.99v5.99h-5.99v5.99h-5.99v11.979h11.979v-5.99h5.99v-5.99h5.99v-5.99h5.99V622.968Z" fill="#ff1a1a"/>
      </g>
      <g id="Group_199" data-name="Group 199">
        <rect id="Rectangle_193" data-name="Rectangle 193" width="5.99" height="5.99" transform="translate(905.156 599.009)" fill="#fff"/>
      </g>
      <g id="Group_200" data-name="Group 200">
        <rect id="Rectangle_194" data-name="Rectangle 194" width="11.979" height="5.99" transform="translate(893.177 604.999)" fill="#fff"/>
      </g>
      <g id="Group_201" data-name="Group 201">
        <rect id="Rectangle_195" data-name="Rectangle 195" width="5.99" height="11.979" transform="translate(887.187 610.988)" fill="#fff"/>
      </g>
      <g id="Group_202" data-name="Group 202">
        <path id="Path_67" data-name="Path 67" d="M929.115,634.947v5.99h-5.99v5.99h-5.99v5.99h11.979v-5.99h5.99v-11.98Z" fill="#fff"/>
      </g>
      <g id="Group_203" data-name="Group 203">
        <rect id="Rectangle_196" data-name="Rectangle 196" width="5.99" height="5.99" transform="translate(881.198 622.968)" fill="#fff"/>
      </g>
      <g id="Group_204" data-name="Group 204">
        <rect id="Rectangle_197" data-name="Rectangle 197" width="5.99" height="5.99" transform="translate(941.094 664.895)"/>
      </g>
      <g id="Group_205" data-name="Group 205">
        <rect id="Rectangle_198" data-name="Rectangle 198" width="5.99" height="5.99" transform="translate(947.084 658.905)"/>
      </g>
      <g id="Group_206" data-name="Group 206">
        <rect id="Rectangle_199" data-name="Rectangle 199" width="11.979" height="5.99" transform="translate(893.177 593.019)"/>
      </g>
      <g id="Group_207" data-name="Group 207">
        <rect id="Rectangle_200" data-name="Rectangle 200" width="11.979" height="5.99" transform="translate(929.115 670.885)"/>
      </g>
      <g id="Group_208" data-name="Group 208">
        <rect id="Rectangle_201" data-name="Rectangle 201" width="5.99" height="5.99" transform="translate(887.187 664.895)"/>
      </g>
      <g id="Group_209" data-name="Group 209">
        <rect id="Rectangle_202" data-name="Rectangle 202" width="5.99" height="11.979" transform="translate(953.073 646.926)"/>
      </g>
      <g id="Group_210" data-name="Group 210">
        <rect id="Rectangle_203" data-name="Rectangle 203" width="5.99" height="5.99" transform="translate(941.094 599.009)"/>
      </g>
      <g id="Group_211" data-name="Group 211">
        <rect id="Rectangle_204" data-name="Rectangle 204" width="11.979" height="5.99" transform="translate(929.115 593.019)"/>
      </g>
      <g id="Group_212" data-name="Group 212">
        <rect id="Rectangle_205" data-name="Rectangle 205" width="5.99" height="5.99" transform="translate(947.084 604.999)"/>
      </g>
      <g id="Group_213" data-name="Group 213">
        <rect id="Rectangle_206" data-name="Rectangle 206" width="5.99" height="11.979" transform="translate(953.073 610.988)"/>
      </g>
      <g id="Group_214" data-name="Group 214">
        <rect id="Rectangle_207" data-name="Rectangle 207" width="11.979" height="5.99" transform="translate(893.177 670.885)"/>
      </g>
      <g id="Group_215" data-name="Group 215">
        <rect id="Rectangle_208" data-name="Rectangle 208" width="5.99" height="5.99" transform="translate(881.198 658.905)"/>
      </g>
      <g id="Group_216" data-name="Group 216">
        <rect id="Rectangle_209" data-name="Rectangle 209" width="5.99" height="23.959" transform="translate(869.218 622.968)"/>
      </g>
      <g id="Group_217" data-name="Group 217">
        <rect id="Rectangle_210" data-name="Rectangle 210" width="23.959" height="5.99" transform="translate(905.156 587.03)"/>
      </g>
      <g id="Group_218" data-name="Group 218">
        <rect id="Rectangle_211" data-name="Rectangle 211" width="23.959" height="5.99" transform="translate(905.156 676.874)"/>
      </g>
      <g id="Group_219" data-name="Group 219">
        <rect id="Rectangle_212" data-name="Rectangle 212" width="5.99" height="23.959" transform="translate(959.063 622.968)"/>
      </g>
      <g id="Group_220" data-name="Group 220">
        <rect id="Rectangle_213" data-name="Rectangle 213" width="5.99" height="5.99" transform="translate(887.187 599.009)"/>
      </g>
      <g id="Group_221" data-name="Group 221">
        <rect id="Rectangle_214" data-name="Rectangle 214" width="5.99" height="11.979" transform="translate(875.208 646.926)"/>
      </g>
      <g id="Group_222" data-name="Group 222">
        <rect id="Rectangle_215" data-name="Rectangle 215" width="5.99" height="11.979" transform="translate(875.208 610.988)"/>
      </g>
      <g id="Group_223" data-name="Group 223">
        <rect id="Rectangle_216" data-name="Rectangle 216" width="5.99" height="5.99" transform="translate(881.198 604.999)"/>
      </g>
      <g id="Group_224" data-name="Group 224">
        <rect id="Rectangle_217" data-name="Rectangle 217" width="5.99" height="11.979" transform="translate(881.198 610.988)" fill="#7f0404"/>
      </g>
      <g id="Group_225" data-name="Group 225">
        <path id="Path_68" data-name="Path 68" d="M881.2,628.957v-5.99h-5.99v23.959h5.99Z" fill="#7f0404"/>
      </g>
      <g id="Group_226" data-name="Group 226">
        <path id="Path_69" data-name="Path 69" d="M905.156,622.968h-5.99v23.959h5.99v-5.99h5.99v-5.99h5.99v-5.99h5.99v-5.99h5.99v-5.99h-23.96Z" fill="#7f0404"/>
      </g>
      <g id="Group_227" data-name="Group 227">
        <rect id="Rectangle_218" data-name="Rectangle 218" width="5.99" height="11.979" transform="translate(881.198 646.926)" fill="#7f0404"/>
      </g>
      <g id="Group_228" data-name="Group 228">
        <rect id="Rectangle_219" data-name="Rectangle 219" width="5.99" height="5.99" transform="translate(887.187 604.999)" fill="#7f0404"/>
      </g>
      <g id="Group_229" data-name="Group 229">
        <path id="Path_70" data-name="Path 70" d="M935.1,646.926h5.99V622.968H935.1v23.959Z" fill="#7f0404"/>
      </g>
      <g id="Group_230" data-name="Group 230">
        <rect id="Rectangle_220" data-name="Rectangle 220" width="5.99" height="5.99" transform="translate(929.115 646.926)" fill="#7f0404"/>
      </g>
      <g id="Group_231" data-name="Group 231">
        <path id="Path_71" data-name="Path 71" d="M905.156,652.916v5.99h23.959v-5.99Z" fill="#7f0404"/>
      </g>
      <g id="Group_232" data-name="Group 232">
        <path id="Path_72" data-name="Path 72" d="M911.146,599.009h17.969v-5.99H905.156v5.99Z" fill="#7f0404"/>
      </g>
      <g id="Group_233" data-name="Group 233">
        <rect id="Rectangle_221" data-name="Rectangle 221" width="11.979" height="5.99" transform="translate(893.177 599.009)" fill="#7f0404"/>
      </g>
      <g id="Group_234" data-name="Group 234">
        <rect id="Rectangle_222" data-name="Rectangle 222" width="23.959" height="5.99" transform="translate(905.156 670.885)" fill="#7f0404"/>
      </g>
      <g id="Group_235" data-name="Group 235">
        <rect id="Rectangle_223" data-name="Rectangle 223" width="11.979" height="5.99" transform="translate(893.177 664.895)" fill="#7f0404"/>
      </g>
      <g id="Group_236" data-name="Group 236">
        <rect id="Rectangle_224" data-name="Rectangle 224" width="5.99" height="5.99" transform="translate(887.187 658.905)" fill="#7f0404"/>
      </g>
      <g id="Group_237" data-name="Group 237">
        <rect id="Rectangle_225" data-name="Rectangle 225" width="11.979" height="5.99" transform="translate(929.115 664.895)" fill="#3d0e0e"/>
      </g>
      <g id="Group_238" data-name="Group 238">
        <rect id="Rectangle_226" data-name="Rectangle 226" width="5.99" height="23.959" transform="translate(953.073 622.968)" fill="#3d0e0e"/>
      </g>
      <g id="Group_239" data-name="Group 239">
        <rect id="Rectangle_227" data-name="Rectangle 227" width="5.99" height="5.99" transform="translate(941.094 658.905)" fill="#3d0e0e"/>
      </g>
      <g id="Group_240" data-name="Group 240">
        <rect id="Rectangle_228" data-name="Rectangle 228" width="5.99" height="11.979" transform="translate(947.084 610.988)" fill="#3d0e0e"/>
      </g>
      <g id="Group_241" data-name="Group 241">
        <rect id="Rectangle_229" data-name="Rectangle 229" width="5.99" height="5.99" transform="translate(941.094 604.999)" fill="#3d0e0e"/>
      </g>
      <g id="Group_242" data-name="Group 242">
        <rect id="Rectangle_230" data-name="Rectangle 230" width="11.979" height="5.99" transform="translate(929.115 599.009)" fill="#3d0e0e"/>
      </g>
      <g id="Group_243" data-name="Group 243">
        <rect id="Rectangle_231" data-name="Rectangle 231" width="5.99" height="11.979" transform="translate(947.084 646.926)" fill="#3d0e0e"/>
      </g>
      <g id="Group_244" data-name="Group 244">
        <rect id="Rectangle_232" data-name="Rectangle 232" width="23.959" height="5.99" transform="translate(905.156 610.988)" fill="#3d0e0e"/>
      </g>
      <g id="Group_245" data-name="Group 245">
        <rect id="Rectangle_233" data-name="Rectangle 233" width="5.99" height="5.99" transform="translate(899.167 646.926)" fill="#3d0e0e"/>
      </g>
      <g id="Group_246" data-name="Group 246">
        <rect id="Rectangle_234" data-name="Rectangle 234" width="5.99" height="5.99" transform="translate(929.115 616.978)" fill="#3d0e0e"/>
      </g>
      <g id="Group_247" data-name="Group 247">
        <rect id="Rectangle_235" data-name="Rectangle 235" width="5.99" height="23.959" transform="translate(893.177 622.968)" fill="#3d0e0e"/>
      </g>
      <g id="Group_248" data-name="Group 248">
        <rect id="Rectangle_236" data-name="Rectangle 236" width="5.99" height="5.99" transform="translate(899.167 616.978)" fill="#3d0e0e"/>
      </g>
    </g>
    <g id="Group_250" data-name="Group 250">
      <rect id="Rectangle_237" data-name="Rectangle 237" width="5.988" height="5.991" transform="translate(917.139 616.977)" fill="#fff"/>
      <rect id="Rectangle_238" data-name="Rectangle 238" width="5.988" height="5.991" transform="translate(923.126 616.977)" fill="#fff"/>
      <rect id="Rectangle_239" data-name="Rectangle 239" width="5.988" height="5.991" transform="translate(917.139 622.968)" fill="#fff"/>
      <rect id="Rectangle_240" data-name="Rectangle 240" width="5.988" height="5.991" transform="translate(911.151 622.968)" fill="#fff"/>
      <rect id="Rectangle_241" data-name="Rectangle 241" width="5.988" height="5.991" transform="translate(911.151 628.959)" fill="#fff"/>
      <rect id="Rectangle_242" data-name="Rectangle 242" width="5.988" height="5.991" transform="translate(905.164 628.959)" fill="#fff"/>
      <rect id="Rectangle_243" data-name="Rectangle 243" width="5.988" height="5.991" transform="translate(917.139 640.941)" fill="#fff"/>
      <rect id="Rectangle_244" data-name="Rectangle 244" width="5.988" height="5.991" transform="translate(923.126 640.941)" fill="#fff"/>
      <rect id="Rectangle_245" data-name="Rectangle 245" width="5.988" height="5.991" transform="translate(917.139 646.932)" fill="#fff"/>
      <rect id="Rectangle_246" data-name="Rectangle 246" width="5.988" height="5.991" transform="translate(911.151 646.932)" fill="#fff"/>
      <rect id="Rectangle_247" data-name="Rectangle 247" width="5.988" height="5.991" transform="translate(911.151 652.922)" fill="#fff"/>
      <rect id="Rectangle_248" data-name="Rectangle 248" width="5.988" height="5.991" transform="translate(905.164 652.922)" fill="#fff"/>
      <rect id="Rectangle_249" data-name="Rectangle 249" width="5.988" height="5.991" transform="translate(911.151 634.95)" fill="#fff"/>
      <rect id="Rectangle_250" data-name="Rectangle 250" width="5.988" height="5.991" transform="translate(905.164 634.95)" fill="#fff"/>
      <rect id="Rectangle_251" data-name="Rectangle 251" width="5.988" height="5.991" transform="translate(899.198 628.959)" fill="#fff"/>
      <rect id="Rectangle_252" data-name="Rectangle 252" width="5.988" height="5.991" transform="translate(899.198 634.95)" fill="#fff"/>
      <rect id="Rectangle_253" data-name="Rectangle 253" width="5.988" height="5.991" transform="translate(923.126 634.95)" fill="#fff"/>
      <rect id="Rectangle_254" data-name="Rectangle 254" width="5.988" height="5.991" transform="translate(929.092 640.941)" fill="#fff"/>
      <rect id="Rectangle_255" data-name="Rectangle 255" width="5.988" height="5.991" transform="translate(929.092 634.95)" fill="#fff"/>
      <rect id="Rectangle_256" data-name="Rectangle 256" width="5.988" height="5.991" transform="translate(917.139 634.95)" fill="#fff"/>
    </g>
  </g>
</svg>
